<svg xmlns="http://www.w3.org/2000/svg" width="124" height="124" viewBox="0 0 124 124" fill="none">
  <path d="M31.0004 98.1667H93.0004V83.855H31.0004V98.1667ZM31.0004 78.6884H93.0004V64.387H31.0004V78.6884ZM31.0004 59.2152H93.0004V52.1834L83.4214 44.9087H40.5794L31.0004 52.1834V59.2152ZM47.358 39.742H76.746L62.0004 28.5459L47.358 39.742ZM25.8337 103.333V56.0894L15.8414 63.7877L12.7207 59.6957L25.8337 49.6001V35.9704H31.0004V45.5959L62.0004 21.9584L111.285 59.6957L108.159 63.7619L98.167 56.0894V103.333H25.8337ZM25.8337 29.8117C25.8337 26.6945 26.8274 24.0268 28.8149 21.8085C30.8023 19.5903 33.6509 18.4812 37.3605 18.4812C39.6201 18.4812 41.2441 17.887 42.2327 16.6987C43.2213 15.5104 43.7173 14.0499 43.7207 12.3174H48.8874C48.8874 15.4312 47.8919 18.0989 45.901 20.3205C43.917 22.5388 41.0702 23.6479 37.3605 23.6479C35.101 23.6479 33.4752 24.242 32.4832 25.4304C31.4912 26.6187 30.9969 28.0774 31.0004 29.8065L25.8337 29.8117Z" fill="#111815"/>
</svg>